<svg xmlns="http://www.w3.org/2000/svg" viewBox="0 0 600 400" width="600" height="400">
  <defs>
    <linearGradient id="bg" x1="0" y1="0" x2="1" y2="1">
      <stop offset="0%" stop-color="#0a0f1a"/>
      <stop offset="100%" stop-color="#0d1b2e"/>
    </linearGradient>
    <marker id="arr" viewBox="0 0 10 10" refX="8" refY="5" markerWidth="5" markerHeight="5" orient="auto-start-reverse">
      <path d="M2 1L8 5L2 9" fill="none" stroke="#ffffff" stroke-opacity="0.4" stroke-width="1.5" stroke-linecap="round" stroke-linejoin="round"/>
    </marker>
  </defs>
  <rect width="600" height="400" fill="url(#bg)"/>
  <g stroke="#ffffff" stroke-opacity="0.03" stroke-width="1">
    <line x1="0" y1="80" x2="600" y2="80"/><line x1="0" y1="160" x2="600" y2="160"/>
    <line x1="0" y1="240" x2="600" y2="240"/><line x1="0" y1="320" x2="600" y2="320"/>
    <line x1="120" y1="0" x2="120" y2="400"/><line x1="240" y1="0" x2="240" y2="400"/>
    <line x1="360" y1="0" x2="360" y2="400"/><line x1="480" y1="0" x2="480" y2="400"/>
  </g>
  <circle cx="300" cy="190" r="150" fill="#ff9900" fill-opacity="0.04"/>
  <text x="300" y="52" font-family="'Segoe UI', Arial, sans-serif" font-size="21" font-weight="700" fill="#f0eee8" text-anchor="middle" letter-spacing="-0.5">Cloud E-Commerce Platform</text>
  <text x="300" y="72" font-family="monospace" font-size="10" fill="#9996a8" text-anchor="middle" letter-spacing="2">AWS · TERRAFORM · CLOUDFRONT · WAF</text>
  <!-- Users -->
  <circle cx="82" cy="190" r="22" fill="#1a2535" stroke="#4a9eff" stroke-opacity="0.5" stroke-width="1"/>
  <text x="82" y="186" font-size="14" text-anchor="middle" fill="#4a9eff">👤</text>
  <text x="82" y="222" font-family="monospace" font-size="8" fill="#6a8aaa" text-anchor="middle">USERS</text>
  <line x1="106" y1="190" x2="148" y2="190" stroke="#4a9eff" stroke-opacity="0.5" stroke-width="1" marker-end="url(#arr)"/>
  <!-- CloudFront -->
  <rect x="150" y="168" width="80" height="44" rx="8" fill="#1a2535" stroke="#ff9900" stroke-opacity="0.6" stroke-width="1"/>
  <text x="190" y="186" font-family="monospace" font-size="8" fill="#ff9900" text-anchor="middle" font-weight="bold">CloudFront</text>
  <text x="190" y="200" font-family="monospace" font-size="7" fill="#cc7700" text-anchor="middle">CDN + Cache</text>
  <line x1="232" y1="190" x2="268" y2="190" stroke="#ff9900" stroke-opacity="0.5" stroke-width="1" marker-end="url(#arr)"/>
  <!-- WAF -->
  <rect x="270" y="168" width="70" height="44" rx="8" fill="#1a2535" stroke="#e74c3c" stroke-opacity="0.6" stroke-width="1"/>
  <text x="305" y="186" font-family="monospace" font-size="8" fill="#e74c3c" text-anchor="middle" font-weight="bold">AWS WAF</text>
  <text x="305" y="200" font-family="monospace" font-size="7" fill="#aa3322" text-anchor="middle">SQL Injection ✓</text>
  <line x1="342" y1="190" x2="378" y2="190" stroke="#e74c3c" stroke-opacity="0.5" stroke-width="1" marker-end="url(#arr)"/>
  <!-- Load Balancer -->
  <rect x="380" y="168" width="76" height="44" rx="8" fill="#1a2535" stroke="#2ecc71" stroke-opacity="0.6" stroke-width="1"/>
  <text x="418" y="183" font-family="monospace" font-size="8" fill="#2ecc71" text-anchor="middle" font-weight="bold">Load</text>
  <text x="418" y="194" font-family="monospace" font-size="8" fill="#2ecc71" text-anchor="middle" font-weight="bold">Balancer</text>
  <text x="418" y="207" font-family="monospace" font-size="7" fill="#1a8a4a" text-anchor="middle">ALB</text>
  <line x1="400" y1="214" x2="390" y2="248" stroke="#2ecc71" stroke-opacity="0.4" stroke-width="1" marker-end="url(#arr)"/>
  <line x1="418" y1="214" x2="418" y2="248" stroke="#2ecc71" stroke-opacity="0.4" stroke-width="1" marker-end="url(#arr)"/>
  <line x1="436" y1="214" x2="448" y2="248" stroke="#2ecc71" stroke-opacity="0.4" stroke-width="1" marker-end="url(#arr)"/>
  <!-- EC2 instances -->
  <rect x="358" y="250" width="44" height="32" rx="6" fill="#1a2535" stroke="#ff9900" stroke-opacity="0.5" stroke-width="1"/>
  <text x="380" y="262" font-family="monospace" font-size="7" fill="#ff9900" text-anchor="middle">EC2</text>
  <text x="380" y="273" font-family="monospace" font-size="6" fill="#cc7700" text-anchor="middle">t3.medium</text>
  <rect x="406" y="250" width="44" height="32" rx="6" fill="#1a2535" stroke="#ff9900" stroke-opacity="0.5" stroke-width="1"/>
  <text x="428" y="262" font-family="monospace" font-size="7" fill="#ff9900" text-anchor="middle">EC2</text>
  <text x="428" y="273" font-family="monospace" font-size="6" fill="#cc7700" text-anchor="middle">t3.medium</text>
  <rect x="454" y="250" width="44" height="32" rx="6" fill="#1a2535" stroke="#ff9900" stroke-opacity="0.4" stroke-width="1" stroke-dasharray="3 2"/>
  <text x="476" y="262" font-family="monospace" font-size="7" fill="#cc7700" text-anchor="middle">EC2</text>
  <text x="476" y="273" font-family="monospace" font-size="6" fill="#886600" text-anchor="middle">auto-scale</text>
  <!-- S3 -->
  <rect x="150" y="256" width="68" height="32" rx="6" fill="#1a2535" stroke="#3a9eff" stroke-opacity="0.5" stroke-width="1"/>
  <text x="184" y="268" font-family="monospace" font-size="8" fill="#3a9eff" text-anchor="middle" font-weight="bold">S3</text>
  <text x="184" y="280" font-family="monospace" font-size="6" fill="#2266cc" text-anchor="middle">Static Assets</text>
  <line x1="190" y1="214" x2="184" y2="254" stroke="#3a9eff" stroke-opacity="0.3" stroke-width="1" stroke-dasharray="3 2" marker-end="url(#arr)"/>
  <!-- RDS -->
  <rect x="240" y="256" width="76" height="32" rx="6" fill="#1a2535" stroke="#9b59b6" stroke-opacity="0.6" stroke-width="1"/>
  <text x="278" y="268" font-family="monospace" font-size="8" fill="#9b59b6" text-anchor="middle" font-weight="bold">RDS</text>
  <text x="278" y="280" font-family="monospace" font-size="6" fill="#6a3a8a" text-anchor="middle">PostgreSQL</text>
  <line x1="358" y1="270" x2="318" y2="270" stroke="#9b59b6" stroke-opacity="0.4" stroke-width="1" marker-end="url(#arr)"/>
  <!-- Terraform -->
  <rect x="50" y="256" width="72" height="32" rx="6" fill="#1a2535" stroke="#7b42f6" stroke-opacity="0.5" stroke-width="1"/>
  <text x="86" y="268" font-family="monospace" font-size="8" fill="#9b72f6" text-anchor="middle" font-weight="bold">Terraform</text>
  <text x="86" y="280" font-family="monospace" font-size="6" fill="#5a32c6" text-anchor="middle">IaC</text>
  <!-- Tech pills -->
  <rect x="60" y="310" width="56" height="20" rx="10" fill="#ff9900" fill-opacity="0.15" stroke="#ff9900" stroke-opacity="0.4" stroke-width="1"/>
  <text x="88" y="324" font-family="monospace" font-size="8" fill="#ffaa33" text-anchor="middle">AWS EC2</text>
  <rect x="124" y="310" width="40" height="20" rx="10" fill="#3a9eff" fill-opacity="0.15" stroke="#3a9eff" stroke-opacity="0.4" stroke-width="1"/>
  <text x="144" y="324" font-family="monospace" font-size="8" fill="#6ab4ff" text-anchor="middle">S3</text>
  <rect x="172" y="310" width="48" height="20" rx="10" fill="#e74c3c" fill-opacity="0.15" stroke="#e74c3c" stroke-opacity="0.4" stroke-width="1"/>
  <text x="196" y="324" font-family="monospace" font-size="8" fill="#ff6655" text-anchor="middle">WAF</text>
  <rect x="228" y="310" width="40" height="20" rx="10" fill="#ff9900" fill-opacity="0.15" stroke="#ff9900" stroke-opacity="0.4" stroke-width="1"/>
  <text x="248" y="324" font-family="monospace" font-size="8" fill="#ffaa33" text-anchor="middle">RDS</text>
  <rect x="276" y="310" width="68" height="20" rx="10" fill="#ff9900" fill-opacity="0.15" stroke="#ff9900" stroke-opacity="0.4" stroke-width="1"/>
  <text x="310" y="324" font-family="monospace" font-size="8" fill="#ffaa33" text-anchor="middle">CloudFront</text>
  <rect x="352" y="310" width="64" height="20" rx="10" fill="#7b42f6" fill-opacity="0.15" stroke="#7b42f6" stroke-opacity="0.4" stroke-width="1"/>
  <text x="384" y="324" font-family="monospace" font-size="8" fill="#9b72f6" text-anchor="middle">Terraform</text>
  <rect x="424" y="310" width="116" height="20" rx="10" fill="#333" fill-opacity="0.5" stroke="#555" stroke-opacity="0.4" stroke-width="1"/>
  <text x="482" y="324" font-family="monospace" font-size="8" fill="#aaa" text-anchor="middle">Claude Code</text>
  <text x="300" y="365" font-family="'Segoe UI', Arial, sans-serif" font-size="11" fill="#5c5a6e" text-anchor="middle">Auto Scaling · CDN · WAF Security · Infrastructure as Code</text>
</svg>
