<svg xmlns="http://www.w3.org/2000/svg" viewBox="0 0 600 400" width="600" height="400">
  <defs>
    <linearGradient id="bg" x1="0" y1="0" x2="1" y2="1">
      <stop offset="0%" stop-color="#0a0a0f"/>
      <stop offset="100%" stop-color="#1a1a2e"/>
    </linearGradient>
  </defs>
  <rect width="600" height="400" fill="url(#bg)"/>
  <g stroke="#ffffff" stroke-opacity="0.04" stroke-width="1">
    <line x1="0" y1="80" x2="600" y2="80"/><line x1="0" y1="160" x2="600" y2="160"/>
    <line x1="0" y1="240" x2="600" y2="240"/><line x1="0" y1="320" x2="600" y2="320"/>
    <line x1="100" y1="0" x2="100" y2="400"/><line x1="200" y1="0" x2="200" y2="400"/>
    <line x1="300" y1="0" x2="300" y2="400"/><line x1="400" y1="0" x2="400" y2="400"/>
    <line x1="500" y1="0" x2="500" y2="400"/>
  </g>
  <circle cx="300" cy="180" r="140" fill="#c8f04e" fill-opacity="0.04"/>
  <circle cx="300" cy="180" r="100" fill="#c8f04e" fill-opacity="0.04"/>
  <rect x="60" y="120" width="100" height="130" rx="8" fill="#1e1e28" stroke="#c8f04e" stroke-opacity="0.3" stroke-width="1"/>
  <rect x="180" y="120" width="100" height="130" rx="8" fill="#1e1e28" stroke="#7c6af7" stroke-opacity="0.3" stroke-width="1"/>
  <rect x="300" y="120" width="100" height="130" rx="8" fill="#1e1e28" stroke="#4ecdc4" stroke-opacity="0.3" stroke-width="1"/>
  <rect x="420" y="120" width="120" height="130" rx="8" fill="#1e1e28" stroke="#9996a8" stroke-opacity="0.2" stroke-width="1"/>
  <text x="110" y="142" font-family="monospace" font-size="9" fill="#c8f04e" fill-opacity="0.8" text-anchor="middle" font-weight="bold">TO DO</text>
  <text x="230" y="142" font-family="monospace" font-size="9" fill="#7c6af7" fill-opacity="0.8" text-anchor="middle" font-weight="bold">IN PROGRESS</text>
  <text x="350" y="142" font-family="monospace" font-size="9" fill="#4ecdc4" fill-opacity="0.8" text-anchor="middle" font-weight="bold">DONE</text>
  <text x="480" y="142" font-family="monospace" font-size="9" fill="#9996a8" fill-opacity="0.6" text-anchor="middle" font-weight="bold">CANCELLED</text>
  <rect x="68" y="150" width="84" height="28" rx="4" fill="#25252f"/>
  <rect x="68" y="186" width="84" height="28" rx="4" fill="#25252f"/>
  <rect x="68" y="222" width="84" height="20" rx="4" fill="#25252f"/>
  <rect x="188" y="150" width="84" height="28" rx="4" fill="#25252f"/>
  <rect x="188" y="186" width="84" height="28" rx="4" fill="#25252f"/>
  <rect x="308" y="150" width="84" height="28" rx="4" fill="#25252f"/>
  <rect x="308" y="186" width="84" height="28" rx="4" fill="#25252f"/>
  <rect x="308" y="222" width="84" height="20" rx="4" fill="#25252f"/>
  <circle cx="76" cy="164" r="3" fill="#f06060"/>
  <circle cx="76" cy="200" r="3" fill="#7c6af7"/>
  <circle cx="76" cy="232" r="3" fill="#9996a8"/>
  <circle cx="196" cy="164" r="3" fill="#f06060"/>
  <circle cx="196" cy="200" r="3" fill="#7c6af7"/>
  <circle cx="316" cy="164" r="3" fill="#c8f04e"/>
  <circle cx="316" cy="200" r="3" fill="#c8f04e"/>
  <circle cx="316" cy="232" r="3" fill="#c8f04e"/>
  <rect x="84" y="161" width="56" height="4" rx="2" fill="#3a3a4a"/>
  <rect x="84" y="168" width="40" height="3" rx="2" fill="#2a2a3a"/>
  <rect x="84" y="197" width="50" height="4" rx="2" fill="#3a3a4a"/>
  <rect x="84" y="204" width="36" height="3" rx="2" fill="#2a2a3a"/>
  <rect x="84" y="229" width="44" height="3" rx="2" fill="#3a3a4a"/>
  <rect x="204" y="161" width="56" height="4" rx="2" fill="#3a3a4a"/>
  <rect x="204" y="168" width="40" height="3" rx="2" fill="#2a2a3a"/>
  <rect x="204" y="197" width="50" height="4" rx="2" fill="#3a3a4a"/>
  <rect x="324" y="161" width="56" height="4" rx="2" fill="#3a3a4a"/>
  <rect x="324" y="168" width="40" height="3" rx="2" fill="#2a2a3a"/>
  <rect x="324" y="197" width="50" height="4" rx="2" fill="#3a3a4a"/>
  <rect x="324" y="229" width="44" height="3" rx="2" fill="#3a3a4a"/>
  <circle cx="488" cy="90" r="18" fill="#7c6af7" fill-opacity="0.15" stroke="#7c6af7" stroke-opacity="0.4" stroke-width="1"/>
  <text x="488" y="95" font-size="16" text-anchor="middle" fill="#a89af7">✦</text>
  <text x="300" y="58" font-family="'Segoe UI', Arial, sans-serif" font-size="22" font-weight="700" fill="#f0eee8" text-anchor="middle" letter-spacing="-0.5">TaskFlow</text>
  <text x="300" y="78" font-family="monospace" font-size="10" fill="#9996a8" text-anchor="middle" letter-spacing="2">AI-POWERED TASK MANAGER</text>
  <rect x="80" y="300" width="68" height="20" rx="10" fill="#0f6e56" fill-opacity="0.3" stroke="#0f6e56" stroke-opacity="0.5" stroke-width="1"/>
  <text x="114" y="314" font-family="monospace" font-size="9" fill="#9fe1cb" text-anchor="middle">FastAPI</text>
  <rect x="156" y="300" width="76" height="20" rx="10" fill="#3c3489" fill-opacity="0.3" stroke="#3c3489" stroke-opacity="0.5" stroke-width="1"/>
  <text x="194" y="314" font-family="monospace" font-size="9" fill="#cecbf6" text-anchor="middle">PostgreSQL</text>
  <rect x="240" y="300" width="52" height="20" rx="10" fill="#3c3489" fill-opacity="0.3" stroke="#3c3489" stroke-opacity="0.5" stroke-width="1"/>
  <text x="266" y="314" font-family="monospace" font-size="9" fill="#cecbf6" text-anchor="middle">Redis</text>
  <rect x="300" y="300" width="60" height="20" rx="10" fill="#3c3489" fill-opacity="0.3" stroke="#7c6af7" stroke-opacity="0.5" stroke-width="1"/>
  <text x="330" y="314" font-family="monospace" font-size="9" fill="#a89af7" text-anchor="middle">Claude AI</text>
  <rect x="368" y="300" width="56" height="20" rx="10" fill="#993c1d" fill-opacity="0.3" stroke="#993c1d" stroke-opacity="0.5" stroke-width="1"/>
  <text x="396" y="314" font-family="monospace" font-size="9" fill="#f5c4b3" text-anchor="middle">Docker</text>
  <rect x="432" y="300" width="48" height="20" rx="10" fill="#993c1d" fill-opacity="0.3" stroke="#993c1d" stroke-opacity="0.5" stroke-width="1"/>
  <text x="456" y="314" font-family="monospace" font-size="9" fill="#f5c4b3" text-anchor="middle">K8s</text>
  <text x="300" y="360" font-family="'Segoe UI', Arial, sans-serif" font-size="11" fill="#5c5a6e" text-anchor="middle">REST API · Background Workers · Analytics · React Dashboard</text>
</svg>
